<?xml version="1.0" encoding="UTF-8" standalone="yes"?>
<svg xmlns="http://www.w3.org/2000/svg"
	version="1.1"
	width="64"
	height="64">
	<path fill="#fd7b34"
	d="M58.6 11.982H43.207a5.408 5.408 0 0 0-5.402 5.401v13.479h-8.008V23.28A5.183 5.183 0 0 0 24.62 18.1h-9.719a5.184 5.184 0 0 0-5.178 5.179v7.582H4.887A4.892 4.892 0 0 0 0 35.748v7.264A4.893 4.893 0 0 0 4.887 47.9h7.264a4.893 4.893 0 0 0 4.886-4.888v-4.836h5.446v9.89a5.438 5.438 0 0 0 5.432 5.434h11.773a5.437 5.437 0 0 0 5.43-5.433v-9.891H58.6c2.977 0 5.4-2.423 5.4-5.401V17.383a5.408 5.408 0 0 0-5.4-5.401m0 3.657c.96 0 1.743.785 1.743 1.744v15.392c0 .959-.784 1.744-1.743 1.744H43.236l-.04.04a2.156 2.156 0 0 0-1.691 1.693l-.043.04v11.775a1.78 1.78 0 0 1-1.774 1.776H27.915c-.976 0-1.775-.8-1.775-1.776V36.293l-.041-.04a2.157 2.157 0 0 0-1.69-1.691l-.042-.043H15.153l-.041.04a2.161 2.161 0 0 0-1.692 1.693l-.04.04v6.72c0 .676-.554 1.23-1.229 1.23H4.887c-.677 0-1.23-.554-1.23-1.23v-7.264c0-.674.553-1.23 1.23-1.23h6.718l.041-.04a2.16 2.16 0 0 0 1.692-1.691l.042-.042V23.28c0-.836.684-1.522 1.521-1.522h9.72c.835 0 1.52.686 1.52 1.522V32.745l.04.04c.169.854.84 1.524 1.693 1.694l.041.04H39.688l.042-.04a2.155 2.155 0 0 0 1.69-1.692l.042-.042V17.383c0-.959.786-1.744 1.745-1.744H58.6"/>
</svg>
